<?xml version="1.0" standalone="no"?>
<!DOCTYPE svg PUBLIC "-//W3C//DTD SVG 20010904//EN"
 "http://www.w3.org/TR/2001/REC-SVG-20010904/DTD/svg10.dtd">
<svg version="1.0" xmlns="http://www.w3.org/2000/svg"
 width="1280.000000pt" height="1172.000000pt" viewBox="0 0 1280.000000 1172.000000"
 preserveAspectRatio="xMidYMid meet">
<g transform="translate(0.000000,1172.000000) scale(0.100000,-0.100000)"
fill="#000000" stroke="none">
<path d="M8340 11708 c-222 -14 -711 -48 -920 -64 -188 -14 -270 -23 -410 -43
-36 -6 -193 -15 -350 -20 -627 -23 -841 -86 -1368 -400 -95 -57 -221 -135
-279 -174 -96 -64 -113 -80 -160 -151 -30 -44 -62 -109 -73 -145 -11 -36 -31
-79 -44 -96 -13 -17 -47 -79 -75 -138 -42 -87 -65 -121 -119 -176 -66 -67
-133 -111 -170 -111 -27 0 -104 -52 -213 -145 -200 -170 -357 -279 -525 -363
-113 -57 -164 -95 -164 -123 0 -25 15 -24 102 7 125 45 218 100 348 205 188
154 341 266 586 430 122 82 225 156 229 166 4 10 11 48 15 84 14 128 101 270
260 429 102 101 240 200 287 204 19 1 19 0 8 -52 -7 -32 -6 -33 15 -22 12 6
58 46 103 87 105 98 229 179 392 258 206 100 268 113 665 135 219 12 670 13
689 1 28 -18 -1 -43 -111 -95 -105 -49 -149 -79 -135 -92 3 -3 61 12 129 34
194 63 475 149 563 171 333 84 810 117 1058 72 415 -74 703 -199 1057 -457
243 -177 334 -284 410 -482 63 -167 76 -189 119 -216 22 -14 42 -29 45 -35 9
-13 -4 -41 -18 -41 -7 0 -21 -6 -32 -14 -18 -14 -19 -34 -25 -498 -6 -543 -11
-583 -100 -939 -103 -414 -291 -879 -355 -879 -25 0 -13 42 54 188 149 320
257 748 293 1154 12 140 7 460 -9 513 -16 57 -24 4 -33 -243 -9 -278 -21 -370
-80 -621 -107 -456 -179 -628 -404 -966 -91 -138 -129 -184 -141 -172 -13 13
7 55 81 172 181 284 314 606 379 911 51 243 94 626 69 611 -6 -4 -16 -31 -23
-59 -25 -110 -31 -128 -44 -128 -12 0 -15 63 -18 348 -4 267 -8 356 -19 385
-8 22 -18 39 -24 39 -5 0 -17 -24 -27 -54 -10 -29 -27 -72 -39 -96 -21 -43
-21 -43 -3 -163 16 -105 16 -138 6 -248 -12 -134 -26 -191 -47 -191 -19 0 -22
18 -15 100 8 84 -4 248 -18 262 -12 12 -17 -15 -42 -237 -24 -215 -29 -239
-57 -243 -27 -4 -39 33 -49 141 -3 42 -10 80 -15 82 -11 7 -17 -54 -24 -239
-12 -338 -105 -888 -153 -904 -21 -7 -26 53 -26 308 0 282 3 303 53 313 31 6
31 7 31 74 0 212 -58 521 -145 778 -65 189 -74 225 -56 225 12 0 62 -62 134
-166 58 -83 97 -126 85 -92 -29 75 -293 446 -411 577 -107 119 -807 263 -807
167 0 -8 4 -17 9 -20 5 -3 74 -10 152 -16 218 -16 428 -70 492 -127 9 -9 41
-62 70 -116 28 -55 71 -121 95 -146 118 -124 274 -411 223 -411 -4 0 -52 50
-106 111 -53 60 -99 108 -101 106 -3 -2 14 -35 38 -73 93 -153 287 -585 303
-676 8 -42 -16 -103 -48 -120 -27 -14 -39 3 -73 106 -45 138 -81 189 -58 82
22 -104 52 -331 65 -482 9 -112 9 -146 -1 -164 -12 -23 -13 -23 -27 -4 -8 10
-23 49 -34 87 -12 37 -23 67 -26 67 -2 0 -19 -16 -37 -35 -19 -19 -43 -35 -55
-35 -38 0 -42 -36 -30 -258 11 -212 8 -272 -15 -272 -28 0 -39 33 -47 137 -4
60 -8 110 -9 113 -5 22 -21 -61 -30 -153 -16 -165 -38 -326 -65 -472 -34 -186
-36 -207 -22 -202 6 2 37 75 68 163 65 187 94 254 108 254 18 0 13 -43 -25
-208 -57 -252 -142 -482 -179 -482 -10 0 -17 14 -21 41 -6 37 -9 40 -30 35
-13 -3 -35 -9 -48 -12 -30 -8 -85 39 -114 98 -51 104 -96 290 -129 542 -11 80
-33 94 -74 48 -16 -18 -34 -30 -39 -27 -17 10 -12 123 7 158 20 38 33 297 15
297 -30 0 -93 -258 -93 -386 -1 -160 94 -425 321 -899 104 -218 228 -506 300
-695 34 -91 75 -195 90 -232 16 -38 32 -85 36 -105 9 -54 17 -60 83 -67 35 -4
70 -15 84 -26 66 -52 367 -722 367 -817 0 -24 9 -48 27 -71 18 -24 25 -44 23
-66 -12 -114 -1 -242 38 -461 23 -126 48 -282 57 -345 23 -177 55 -612 62
-847 3 -117 10 -218 15 -225 38 -58 99 318 102 623 1 182 -4 199 -55 199 -19
0 -30 6 -34 20 -8 27 11 50 41 50 19 0 25 8 34 40 21 79 38 43 64 -145 24
-161 44 -259 76 -360 16 -50 47 -203 70 -340 23 -138 50 -276 61 -307 26 -79
24 -100 -14 -138 -39 -38 -115 -85 -124 -76 -4 4 1 20 11 37 42 72 -20 77
-111 9 -29 -23 -60 -43 -68 -47 -9 -3 -22 -20 -29 -38 -12 -29 -21 -34 -68
-44 -29 -6 -91 -25 -138 -41 -47 -16 -125 -34 -175 -41 -107 -14 -323 -7 -440
15 -268 50 -363 66 -396 66 -90 0 -373 93 -417 137 -20 20 -22 26 -11 39 16
20 50 15 196 -26 149 -42 548 -122 586 -118 l32 4 -37 17 c-20 9 -99 32 -175
51 -164 40 -196 52 -190 69 3 9 67 12 266 14 235 1 321 6 309 18 -2 2 -98 13
-213 25 -327 32 -646 70 -688 81 -31 8 -38 14 -35 32 3 24 20 30 142 46 56 8
96 20 135 43 124 70 204 108 228 108 14 0 63 18 107 40 112 54 236 83 362 84
108 1 134 11 134 50 0 54 -93 93 -195 82 -112 -11 -177 -41 -260 -116 -69 -63
-81 -70 -148 -85 -104 -23 -160 -42 -267 -92 -117 -56 -186 -66 -226 -34 -24
19 -35 21 -103 15 -54 -5 -100 -1 -159 10 -146 30 -402 127 -402 152 0 8 3 14
8 14 4 0 86 14 182 30 278 48 340 63 340 85 0 18 -13 22 -126 34 -323 37 -419
66 -577 173 -103 70 -151 87 -715 254 -380 112 -557 196 -637 301 -45 60 -143
131 -258 188 -112 57 -127 57 -127 8 1 -83 100 -256 205 -358 34 -33 93 -80
133 -105 102 -65 96 -80 -39 -104 -140 -24 -391 -48 -439 -41 -49 7 -256 61
-385 101 -44 14 -125 51 -180 83 -111 65 -165 86 -198 77 -31 -7 -44 4 -44 41
0 22 -12 48 -40 85 -23 29 -63 91 -90 138 -50 88 -125 191 -247 340 -173 211
-166 265 19 159 83 -48 140 -88 289 -204 32 -25 61 -43 64 -41 10 11 -90 116
-288 304 -310 295 -365 331 -590 390 -112 29 -153 35 -240 35 -94 1 -117 -3
-225 -37 -242 -76 -452 -179 -550 -270 -45 -42 -60 -66 -88 -136 -34 -87 -56
-106 -68 -60 -4 14 -24 77 -44 140 -21 63 -41 148 -46 188 -5 45 -17 91 -31
116 -21 39 -23 56 -28 306 -5 264 -5 265 -32 321 -31 62 -68 104 -68 76 0 -9
9 -32 21 -51 24 -42 32 -167 11 -188 -25 -25 -46 6 -68 98 -11 49 -25 98 -31
108 -6 11 -37 38 -69 61 -34 23 -81 70 -110 109 -55 74 -79 96 -134 125 -64
34 -156 35 -136 2 4 -6 28 -23 54 -37 155 -88 185 -122 145 -167 -10 -12 -24
-34 -31 -49 -15 -36 -32 -35 -112 3 -75 35 -105 60 -129 109 -20 39 -159 446
-191 558 -11 39 -25 72 -30 72 -16 0 -12 -224 6 -300 9 -40 45 -128 84 -207
55 -112 81 -153 137 -212 106 -115 132 -131 217 -131 128 -1 205 -54 257 -178
36 -87 50 -192 29 -217 -17 -20 -63 -19 -183 6 -119 24 -268 72 -385 124 -46
20 -86 35 -89 32 -9 -10 107 -78 168 -99 68 -23 76 -31 81 -78 l3 -35 171 -7
c182 -8 228 -17 222 -45 -7 -37 -45 -44 -198 -40 -146 5 -174 10 -425 81 -59
16 -69 12 -35 -14 38 -29 220 -85 373 -116 142 -28 194 -51 170 -74 -16 -17
-137 -29 -300 -30 -132 0 -189 -11 -126 -24 79 -16 165 -26 228 -26 78 0 99
-8 93 -36 -9 -51 -201 -100 -431 -111 -97 -4 -146 -10 -144 -17 7 -20 82 -28
212 -22 162 6 262 25 388 72 101 38 130 37 109 -2 -21 -40 -235 -145 -322
-159 -68 -12 -80 -15 -80 -26 0 -32 228 24 395 96 57 25 112 45 124 45 30 0
27 -34 -6 -60 -77 -60 -324 -150 -482 -176 -126 -20 -142 -24 -135 -36 5 -7
49 -9 123 -5 189 8 470 89 567 164 83 62 101 32 29 -46 -100 -107 -312 -184
-580 -211 -169 -17 -193 -21 -170 -31 30 -11 282 -11 372 2 43 6 146 33 229
60 151 49 188 57 198 40 13 -20 -45 -70 -97 -85 -29 -9 -78 -27 -108 -40 l-54
-25 61 0 c34 -1 101 6 149 14 93 16 115 12 115 -26 0 -35 -27 -47 -117 -54
-433 -32 -483 -42 -629 -128 -100 -59 -214 -138 -234 -162 -23 -28 67 11 153
66 179 115 412 193 431 144 3 -10 -24 -38 -87 -88 -173 -139 -274 -243 -254
-263 4 -4 42 21 86 54 104 81 210 146 403 248 l159 84 287 0 c408 0 480 -13
717 -129 207 -101 488 -302 577 -412 20 -24 47 -69 62 -99 14 -30 60 -93 102
-140 137 -154 221 -288 248 -395 8 -33 22 -114 30 -180 52 -419 15 -760 -131
-1210 -55 -169 -76 -213 -109 -225 -33 -13 -121 -13 -129 0 -11 18 14 47 60
69 41 19 45 24 45 56 0 19 11 69 25 112 13 42 23 79 20 81 -2 2 -22 -23 -45
-55 -23 -32 -60 -74 -81 -93 -25 -23 -63 -82 -109 -169 -97 -185 -151 -262
-250 -361 -412 -413 -1085 -565 -1548 -350 -79 37 -105 61 -85 81 14 14 106
27 273 39 258 17 314 36 382 125 50 66 159 288 199 405 29 85 33 109 37 235 3
116 -1 169 -22 307 -40 249 -49 276 -166 458 -37 58 -83 134 -101 170 -43 82
-92 116 -226 159 -135 42 -254 61 -395 61 -66 0 -128 5 -139 10 -27 15 -24 46
8 67 88 57 273 278 273 324 0 47 -75 -6 -131 -92 -18 -28 -47 -60 -64 -72 -18
-12 -61 -46 -95 -75 -95 -81 -313 -182 -392 -182 -21 0 -31 -6 -38 -25 -6 -16
-18 -25 -32 -26 -78 -4 -81 4 -74 206 9 238 18 295 66 392 22 44 40 84 40 87
0 39 -132 -117 -176 -209 -38 -77 -45 -150 -19 -195 19 -34 19 -190 0 -284 -8
-40 -39 -138 -69 -217 -75 -204 -167 -515 -186 -636 -10 -62 3 -159 29 -218
20 -44 77 -115 93 -115 7 0 8 47 3 138 -4 88 -3 172 5 236 22 184 135 579 194
681 35 59 65 74 101 51 36 -24 32 -57 -19 -134 -125 -192 -190 -403 -203 -652
-7 -155 7 -244 53 -341 19 -39 41 -103 50 -143 l16 -71 209 -208 c115 -115
209 -213 209 -218 0 -16 -42 -26 -77 -18 -49 11 -133 78 -273 219 -160 161
-275 297 -361 428 -102 157 -140 240 -150 330 -4 43 -13 92 -18 111 -19 63
-34 294 -28 441 6 152 64 586 97 726 36 153 118 333 240 526 71 111 175 253
204 277 9 7 16 18 16 24 0 18 -126 -111 -194 -198 -194 -248 -318 -487 -336
-648 -5 -45 -26 -138 -45 -207 -19 -68 -47 -183 -62 -255 -24 -116 -27 -151
-27 -330 1 -231 12 -290 88 -455 24 -52 51 -120 60 -150 19 -67 103 -209 170
-287 27 -32 54 -71 62 -88 14 -33 44 -160 44 -186 0 -27 -83 -95 -249 -204
-87 -56 -175 -118 -195 -135 -48 -43 -76 -98 -76 -153 0 -28 -6 -49 -16 -58
-21 -17 -120 -25 -138 -10 -7 6 -16 38 -20 71 -6 47 -13 65 -36 89 -17 16 -30
34 -30 39 0 11 24 22 50 22 10 0 36 19 58 41 42 44 89 119 75 119 -12 0 -258
-144 -297 -173 -45 -35 -127 -74 -169 -82 -46 -9 -67 6 -67 49 1 108 138 247
370 376 111 61 198 122 182 128 -14 4 -90 -29 -160 -72 -32 -19 -87 -46 -123
-60 -42 -17 -84 -44 -118 -76 -55 -52 -98 -70 -167 -70 -78 0 -96 49 -39 106
20 20 34 24 80 24 54 0 58 2 103 48 26 26 141 112 257 190 313 211 323 223 94
116 -222 -104 -258 -112 -297 -71 -27 29 -29 87 -4 110 10 9 49 27 87 40 92
31 395 166 417 185 54 46 -72 39 -230 -13 -216 -72 -392 -178 -392 -236 0 -46
35 -84 114 -125 42 -21 76 -44 76 -50 0 -14 -144 -71 -211 -84 -28 -5 -63 -18
-78 -29 -37 -27 -112 -109 -139 -152 l-22 -36 21 -44 c49 -102 192 -359 201
-359 5 0 19 6 31 14 36 24 140 46 212 46 66 0 67 -1 112 -45 38 -39 45 -52 47
-88 1 -42 1 -42 38 -40 67 4 137 49 244 159 80 81 110 105 143 114 49 13 61
10 166 -38 72 -32 88 -36 165 -36 104 -1 143 15 148 59 2 17 7 34 12 39 5 5
49 -11 107 -38 71 -35 427 -166 450 -166 2 0 3 -7 3 -16 0 -15 -22 -16 -235
-9 -170 5 -235 4 -235 -4 0 -6 18 -22 41 -36 23 -15 46 -40 55 -60 7 -18 18
-36 23 -39 22 -14 963 -150 1146 -166 263 -22 768 -31 815 -13 26 9 -19 22
-82 22 -44 1 -58 5 -58 16 0 24 68 36 250 41 194 6 283 -2 288 -27 3 -19 -26
-33 -101 -49 -60 -12 -66 -23 -20 -35 40 -9 73 -33 73 -52 0 -8 -16 -33 -35
-54 -19 -22 -35 -47 -35 -57 0 -50 88 -133 162 -153 60 -16 116 15 170 94 51
74 136 134 235 166 58 19 68 20 81 7 13 -12 11 -19 -14 -50 -16 -20 -32 -36
-36 -36 -15 0 -89 -109 -99 -145 -8 -29 -7 -41 6 -61 32 -49 132 -27 326 71
69 35 145 69 170 75 24 7 75 33 112 58 50 34 71 42 79 34 8 -8 -7 -39 -60
-117 -40 -58 -72 -114 -72 -124 0 -24 89 -41 211 -41 l94 0 150 148 c162 159
271 241 362 273 31 11 116 57 188 103 71 46 153 95 180 109 63 32 102 74 151
162 47 85 95 140 145 165 106 55 351 52 546 -7 214 -63 245 -68 578 -83 288
-13 578 -35 735 -56 120 -16 148 -21 245 -49 80 -23 580 -33 776 -16 197 18
553 69 639 92 41 11 158 53 260 94 102 41 245 90 318 109 238 64 719 229 834
287 64 32 86 60 64 79 -24 19 -92 -2 -271 -83 -132 -60 -267 -106 -560 -193
-287 -85 -459 -141 -517 -170 -192 -97 -776 -161 -1232 -135 -122 6 -340 16
-486 21 -146 5 -305 16 -355 24 -200 34 -388 76 -413 92 -63 41 -211 167 -206
175 7 13 101 11 149 -2 22 -6 98 -38 168 -71 71 -33 172 -71 225 -85 85 -23
117 -26 262 -26 220 0 370 25 780 134 140 37 203 49 258 49 130 0 388 -47 560
-102 158 -50 142 -20 -29 54 -87 37 -189 68 -324 99 -49 12 -61 18 -63 36 -3
17 5 26 34 38 21 8 65 33 98 54 170 106 418 165 701 164 154 0 183 -3 308 -32
152 -34 181 -37 175 -18 -12 39 -220 95 -383 104 -82 4 -130 1 -189 -11 -97
-20 -116 -20 -116 -1 0 19 38 56 104 101 50 33 50 33 68 14 12 -13 27 -18 41
-15 12 3 108 17 212 31 158 22 215 25 335 21 158 -5 211 -17 362 -83 72 -32
107 -37 92 -13 -20 32 -215 104 -365 135 -138 28 -437 4 -562 -45 -67 -26 -77
3 -20 57 54 51 165 100 279 124 113 23 298 27 407 9 82 -14 244 -68 383 -127
56 -24 114 -46 130 -50 l29 -7 -24 27 c-71 77 -474 236 -600 236 -45 0 -91 15
-91 29 0 5 7 17 16 25 23 23 8 20 -61 -14 -45 -22 -85 -32 -151 -39 -75 -8
-103 -16 -160 -46 l-69 -37 -158 5 c-91 2 -163 9 -169 15 -11 11 6 15 177 32
121 13 174 26 200 50 11 10 40 30 63 43 24 14 40 27 34 31 -5 3 -177 1 -383
-5 -364 -10 -468 -6 -476 18 -10 29 44 36 322 45 253 7 684 34 693 43 13 13
-101 15 -402 5 -191 -6 -362 -8 -381 -4 -42 8 -46 31 -7 40 15 3 34 8 42 10
37 9 319 25 700 39 422 15 741 33 750 42 3 3 -224 2 -505 -2 -473 -6 -767 1
-819 21 -21 8 -20 30 2 39 9 4 186 13 392 20 206 8 383 16 393 19 9 3 24 8 33
11 46 15 -26 20 -319 25 -244 4 -328 8 -346 18 -14 9 -20 17 -14 23 20 20 823
85 1177 96 164 4 224 9 216 17 -8 8 -204 11 -655 11 -502 0 -647 3 -656 13
-34 33 43 46 391 67 257 15 434 31 480 43 58 14 -57 18 -282 9 -240 -9 -516 1
-570 22 -31 12 -37 37 -10 45 78 24 978 61 1252 51 107 -4 218 -8 245 -8 61
-2 70 13 18 33 -32 12 -95 14 -393 10 -523 -7 -1091 -4 -1125 7 -16 5 -31 17
-33 26 -4 21 54 37 137 37 35 0 179 9 320 20 141 11 325 24 409 29 85 5 157
12 160 16 9 10 -546 -2 -723 -15 -77 -6 -173 -15 -214 -21 -62 -9 -76 -8 -88
4 -41 40 22 79 157 96 172 23 955 68 1343 78 239 6 291 12 235 27 -69 18
-1288 -22 -1657 -54 -119 -11 -141 -6 -141 30 0 52 98 70 500 90 444 22 591
40 444 53 -114 11 -221 8 -394 -12 -273 -32 -515 -46 -545 -33 -101 46 118
114 427 132 167 10 207 19 148 32 -50 10 -573 -23 -589 -38 -12 -11 -41 20
-41 45 0 58 29 63 425 86 340 19 515 34 535 46 22 14 -622 4 -807 -12 -162
-14 -183 -10 -183 32 0 36 39 47 235 63 105 9 240 21 300 26 211 18 549 40
639 41 50 1 116 5 146 9 126 20 -979 -11 -1170 -32 -159 -17 -164 -17 -168 10
-5 37 23 59 91 71 66 11 348 33 662 51 253 14 314 20 320 30 11 17 -72 20
-267 9 -237 -13 -763 -17 -774 -6 -19 19 24 30 148 38 73 5 156 12 183 16 45
6 47 7 20 12 -71 14 4 90 89 91 31 0 46 7 77 39 23 23 39 48 39 62 l0 24 -253
1 c-261 1 -330 8 -335 36 -4 22 18 26 218 34 96 4 186 10 200 14 24 7 23 8
-10 14 -19 3 -95 13 -169 21 -205 22 -197 31 44 51 187 15 288 28 327 43 39
15 6 19 -212 25 -113 3 -218 10 -235 14 -35 10 -44 36 -17 51 39 21 575 51
586 33 3 -6 2 -32 -4 -58 -6 -26 -9 -49 -6 -51 7 -7 63 80 82 126 9 23 14 44
11 48 -4 3 -73 -2 -154 -10 -303 -32 -418 -33 -460 -2 -14 11 -16 18 -7 32 14
22 50 29 239 43 161 11 393 44 406 57 4 4 11 167 15 362 l7 354 108 221 c69
139 105 224 99 230 -18 18 -52 -28 -119 -165 -78 -157 -147 -356 -161 -461 -7
-60 -13 -77 -35 -95 -36 -31 -109 -51 -236 -64 -119 -11 -160 -3 -167 36 -6
29 -30 53 -62 60 -15 3 -36 15 -45 25 -16 18 -16 20 7 43 31 31 112 61 263 98
171 41 229 60 219 69 -5 5 -85 -7 -179 -26 -198 -39 -243 -42 -276 -15 -34 28
-17 40 82 57 114 20 212 47 284 80 75 34 54 41 -45 14 -180 -50 -300 -59 -314
-25 -7 20 14 38 68 59 42 16 46 20 46 51 0 48 30 71 130 101 198 59 252 78
273 95 30 25 21 24 -128 -16 -207 -55 -468 -70 -483 -27 -6 18 50 38 161 57
99 17 239 59 293 88 41 23 10 22 -92 -3 -105 -25 -236 -41 -274 -34 -16 4 -35
13 -42 21 -10 12 -9 18 7 29 10 8 32 14 47 14 73 0 258 51 258 71 0 5 -54 8
-123 7 -127 -3 -157 4 -157 39 0 19 77 52 153 64 34 6 64 12 66 15 13 12 -29
24 -89 25 -77 1 -139 17 -154 41 -17 28 4 39 91 50 43 5 94 12 113 15 l35 5
-30 16 c-23 13 -53 16 -133 15 -85 -2 -104 0 -109 13 -10 27 29 53 154 103 71
29 151 70 194 100 150 103 324 106 454 7 38 -30 82 -109 103 -188 10 -34 23
-63 31 -66 24 -8 10 183 -17 234 -46 89 -159 152 -288 161 -92 7 -152 -11
-278 -83 -116 -67 -213 -103 -274 -104 -79 0 -79 -5 12 505 19 105 44 258 56
340 12 83 26 166 32 185 7 24 47 71 123 145 121 120 162 183 191 296 30 116 5
221 -76 327 -28 36 -53 77 -57 90 -3 14 2 78 13 141 10 64 19 163 19 221 0 99
-3 113 -47 245 -84 247 -137 514 -178 890 -35 320 -61 421 -160 635 -31 69
-69 157 -83 195 -41 113 -57 146 -104 220 -68 105 -176 204 -393 361 -257 186
-295 211 -425 279 -60 32 -132 74 -160 93 -144 102 -352 153 -608 150 -78 -1
-203 -5 -277 -10z m-875 -158 c0 -20 -6 -26 -29 -28 -37 -5 -51 10 -36 38 17
32 65 24 65 -10z m-147 1 c22 -14 10 -46 -18 -48 -32 -4 -64 21 -57 42 7 16
53 20 75 6z m2999 -1311 c6 -13 10 -28 7 -32 -10 -16 -31 -7 -43 18 -21 47 13
60 36 14z m33 -234 c5 -71 10 -173 10 -227 0 -93 -1 -99 -20 -99 -13 0 -25 10
-32 28 -13 32 -17 420 -4 440 20 32 35 -14 46 -142z m186 -921 c-6 -235 -13
-311 -31 -304 -12 5 -14 525 -2 554 l8 20 16 -20 c13 -17 14 -53 9 -250z
m-646 135 c0 -53 -24 -110 -46 -110 -14 0 -16 7 -11 45 7 50 32 105 47 105 6
0 10 -18 10 -40z m403 -203 c-5 -149 -199 -734 -324 -978 -62 -121 -92 -159
-125 -159 -33 0 -31 21 12 91 125 206 302 663 365 943 16 71 35 136 41 143 20
24 33 7 31 -40z m110 -25 c-9 -90 -35 -208 -75 -330 -44 -138 -45 -165 -8
-170 41 -6 43 -18 11 -51 -18 -19 -37 -54 -47 -89 -22 -74 -114 -171 -114
-119 0 38 97 424 140 557 27 85 57 182 66 214 18 68 34 61 27 -12z m-601 -37
c-6 -54 -184 -490 -267 -655 -35 -69 -59 -87 -72 -54 -14 38 128 424 192 520
18 28 50 84 70 125 21 41 42 80 48 87 16 20 32 7 29 -23z m813 -205 c0 -42 -4
-65 -12 -67 -10 -4 -13 14 -13 67 0 53 3 71 13 68 8 -3 12 -26 12 -68z m-1417
-93 c24 -28 44 -319 23 -331 -24 -15 -46 57 -61 202 -8 72 -8 108 0 122 12 23
23 25 38 7z m1337 -297 c0 -13 -5 -25 -12 -27 -13 -5 -27 32 -18 47 11 18 30
5 30 -20z m-125 -5 c0 -26 -30 -75 -45 -75 -19 0 -19 23 0 60 16 32 45 41 45
15z m-1200 -175 c0 -20 -5 -30 -15 -30 -10 0 -15 10 -15 30 0 20 5 30 15 30
10 0 15 -10 15 -30z m190 5 c0 -31 -36 -141 -56 -173 -42 -64 -44 66 -3 151
26 53 59 65 59 22z m1372 -60 c41 -41 61 -104 56 -175 -3 -40 -10 -67 -22 -78
-16 -16 -18 -16 -32 2 -8 11 -14 31 -14 45 0 14 -14 64 -30 111 -49 141 -36
173 42 95z m-158 15 c39 -14 59 -64 53 -127 -11 -102 -75 -189 -112 -152 -13
13 -13 23 -1 82 18 87 10 117 -37 140 -40 19 -47 40 -19 56 22 13 83 14 116 1z
m-466 -33 c5 -25 -36 -105 -60 -118 -46 -25 -45 32 2 109 22 36 52 40 58 9z
m226 -126 c13 -21 -43 -51 -277 -150 -89 -38 -200 -85 -246 -105 -103 -45
-131 -35 -50 17 100 64 401 207 499 238 35 10 68 11 74 0z m-664 -65 c0 -20
-55 -107 -117 -183 -22 -28 -66 -35 -70 -12 -2 8 22 50 54 92 32 42 66 88 76
102 23 33 57 34 57 1z m778 -8 c3 -22 -4 -32 -40 -54 -81 -52 -310 -121 -339
-103 -9 5 -10 12 -4 18 18 18 350 171 365 169 8 -2 16 -15 18 -30z m112 -142
c0 -13 -91 -104 -130 -130 -36 -24 -84 -20 -117 8 -31 27 -28 29 38 40 20 4
56 21 79 39 81 62 130 78 130 43z m-532 -63 c4 -26 -30 -51 -82 -60 -52 -8
-60 20 -17 59 40 36 94 37 99 1z m-1524 -42 c20 -22 14 -41 -13 -41 -22 0 -55
35 -46 49 10 17 40 13 59 -8z m1431 -51 c15 -16 15 -22 5 -35 -7 -8 -20 -15
-29 -15 -18 0 -77 -38 -143 -92 -48 -40 -75 -48 -85 -23 -6 17 23 55 43 55 7
0 23 14 36 31 56 75 85 99 120 99 22 0 42 -7 53 -20z m374 -39 c25 -16 0 -50
-73 -99 -41 -27 -106 -62 -144 -76 -53 -20 -98 -49 -174 -112 -131 -108 -260
-197 -342 -235 -84 -39 -220 -69 -238 -51 -10 10 -9 15 2 26 17 16 128 61 235
96 55 17 78 31 110 66 25 28 58 50 89 61 49 18 69 39 44 47 -7 2 -25 7 -40 10
-40 9 -37 41 3 55 18 6 51 11 75 11 57 0 74 8 74 34 0 34 40 64 111 85 35 10
100 35 144 55 84 37 101 41 124 27z m-981 -77 c3 -23 -32 -59 -47 -49 -16 9
-13 36 6 57 20 22 37 19 41 -8z m1080 -69 c5 -24 -89 -119 -155 -157 -52 -29
-53 -31 -47 -68 4 -22 2 -40 -4 -44 -6 -3 -43 -10 -83 -15 -68 -9 -120 -31
-72 -31 27 0 37 -14 20 -28 -23 -19 -149 -52 -198 -52 -41 0 -49 3 -49 19 0
23 15 35 63 51 22 7 63 32 92 55 29 24 70 52 91 63 22 11 79 57 129 101 84 76
176 135 200 128 5 -2 12 -12 13 -22z m-754 -50 c-5 -33 -111 -66 -121 -38 -7
19 58 54 92 51 17 -2 29 -7 29 -13z m-19 -125 c4 -6 2 -17 -4 -24 -14 -17
-120 -44 -201 -53 -51 -5 -60 -3 -60 10 0 23 41 48 103 63 65 15 154 17 162 4z
m735 -65 c0 -48 -41 -90 -115 -120 -60 -24 -75 -24 -75 0 0 16 171 164 183
158 4 -2 7 -20 7 -38z m-575 -205 c20 -33 -77 -94 -142 -88 -30 2 -39 7 -41
25 -4 24 17 38 83 59 49 16 92 17 100 4z m494 -9 c11 -7 21 -18 21 -26 0 -16
-13 -18 -170 -34 -104 -10 -223 -42 -204 -54 11 -7 173 7 249 22 89 17 108
-13 49 -79 -52 -58 -159 -125 -296 -187 -112 -51 -148 -59 -148 -33 0 31 154
129 226 144 33 7 72 41 61 53 -4 3 -118 1 -253 -7 -243 -13 -278 -10 -260 19
10 16 109 42 206 55 77 11 85 14 82 32 -5 35 68 72 198 99 72 16 206 13 239
-4z m-1271 -213 c30 -30 0 -68 -39 -48 -19 10 -26 40 -12 53 10 11 38 8 51 -5z
m1239 -141 c-12 -37 -149 -87 -237 -87 -82 0 -29 47 100 88 36 11 74 22 85 25
26 5 57 -11 52 -26z m-549 14 c22 -14 10 -46 -19 -49 -29 -3 -54 20 -45 43 6
16 43 20 64 6z m132 -136 c28 -33 -24 -65 -74 -45 -27 10 -36 44 -13 53 26 11
75 6 87 -8z m346 -60 c17 -44 -88 -91 -259 -115 -77 -11 -118 0 -97 25 15 18
99 50 214 80 107 28 135 30 142 10z m-983 -94 c53 -20 70 -61 25 -61 -28 0
-98 41 -98 57 0 15 38 17 73 4z m522 -6 c0 -12 -40 -19 -61 -11 -9 3 -12 11
-9 16 8 14 70 9 70 -5z m483 -41 c3 -35 -28 -81 -64 -94 -38 -15 -322 -43
-360 -36 -44 9 -44 33 0 51 18 8 98 26 177 40 99 18 156 34 184 50 49 29 59
27 63 -11z m-747 -33 c20 -16 21 -21 10 -35 -15 -18 -53 -21 -82 -6 -24 13
-25 36 -1 49 26 15 47 13 73 -8z m153 -37 c32 -12 12 -64 -25 -64 -9 0 -23 7
-30 16 -11 14 -10 19 10 35 26 22 24 21 45 13z m-39 -129 c43 -11 124 -15 293
-15 220 0 232 -1 232 -19 0 -58 -256 -92 -430 -57 -115 24 -193 66 -175 96 8
12 7 12 80 -5z m-93 -100 c96 -38 166 -53 300 -65 329 -29 348 -32 348 -56 0
-20 -28 -31 -118 -45 -107 -16 -228 -1 -369 46 -125 42 -263 110 -263 130 0
22 31 19 102 -10z m305 -214 c50 -5 141 -7 202 -4 110 6 111 6 119 -18 20 -54
-23 -118 -96 -139 -102 -30 -298 -17 -401 26 -35 15 -35 16 -16 30 15 11 56
14 211 12 130 -2 196 1 204 8 8 8 -23 13 -112 18 -149 8 -243 27 -340 67 -79
33 -93 42 -84 57 3 6 48 -1 114 -18 59 -16 149 -33 199 -39z m678 -216 c0 -16
-10 -22 -46 -29 -52 -10 -102 -1 -97 16 6 17 68 37 108 35 28 -2 35 -6 35 -22z
m-657 -25 c67 -11 133 -25 147 -30 28 -11 33 -35 9 -44 -28 -11 -147 -6 -218
9 -84 18 -130 43 -134 74 -4 27 -16 28 196 -9z m24 -148 c18 -17 19 -23 8 -36
-17 -22 -36 -20 -97 9 -33 15 -53 30 -53 41 0 26 113 15 142 -14z m-5818 -159
c38 -12 57 -40 36 -53 -9 -5 -115 -7 -260 -3 l-245 6 -125 -31 c-154 -39 -320
-94 -403 -133 -68 -32 -117 -38 -117 -14 0 34 363 221 455 235 77 11 621 6
659 -7z m6271 -62 c8 -14 -30 -32 -49 -25 -30 11 -16 34 20 34 13 0 25 -4 29
-9z m-6204 -69 c63 -33 72 -59 19 -54 -47 4 -124 43 -128 65 -5 27 47 22 109
-11z m-429 -57 c110 -19 218 -55 311 -101 82 -42 173 -102 201 -132 20 -23 16
-52 -9 -52 -26 0 -17 -32 32 -115 75 -129 122 -219 123 -232 0 -23 -22 -14
-66 27 -23 21 -55 42 -69 46 -49 12 -48 -10 5 -81 52 -71 61 -100 34 -119 -14
-11 -9 -31 49 -187 72 -194 103 -300 94 -323 -25 -65 -203 65 -315 230 -48 72
-148 166 -225 212 -67 40 -289 142 -449 206 -146 58 -210 72 -416 86 -270 19
-322 32 -272 71 96 75 133 110 195 183 108 128 229 209 400 268 67 22 97 27
185 27 58 1 144 -6 192 -14z m6728 -30 c19 -23 -15 -59 -41 -44 -19 10 -25 39
-12 52 11 12 40 7 53 -8z m538 -41 c2 -12 -8 -34 -21 -49 -31 -37 -112 -54
-287 -62 -123 -5 -137 -4 -154 13 -18 17 -18 19 7 40 16 14 51 26 94 34 37 6
115 19 173 29 138 24 184 23 188 -5z m-555 -64 c18 -16 2 -45 -25 -48 -54 -6
-90 35 -50 57 17 10 60 5 75 -9z m-288 1 c8 -14 -30 -32 -49 -25 -30 11 -16
34 20 34 13 0 25 -4 29 -9z m-351 -73 c20 -28 21 -78 2 -78 -18 0 -33 19 -41
52 -12 48 13 64 39 26z m1188 -16 c19 -19 -12 -39 -84 -54 -32 -7 -57 -17 -55
-22 5 -14 58 -27 87 -21 14 3 34 -1 45 -9 16 -12 17 -16 6 -30 -45 -54 -447
-85 -508 -40 -33 24 1 37 119 45 109 8 168 22 168 40 0 13 -37 19 -145 22 -86
2 -100 4 -103 19 -5 26 34 38 168 53 142 17 284 15 302 -3z m-887 -17 c0 -23
-38 -33 -60 -15 -23 19 -6 41 29 38 23 -2 31 -8 31 -23z m144 6 c20 -13 6 -39
-25 -51 -49 -19 -90 13 -58 45 17 16 61 20 83 6z m142 -1 c27 -15 24 -48 -4
-55 -29 -8 -77 10 -77 28 0 33 43 47 81 27z m-6008 -140 c54 -60 95 -127 104
-171 5 -27 3 -31 -13 -27 -10 2 -28 18 -39 37 -11 18 -48 71 -83 118 -37 49
-61 91 -58 99 8 21 35 5 89 -56z m5955 8 c31 -31 -11 -69 -54 -49 -39 17 -24
61 21 61 12 0 26 -5 33 -12z m-73 -128 c40 -15 29 -43 -22 -54 -51 -11 -144 0
-169 20 -18 14 -18 14 0 29 23 18 149 21 191 5z m-41 -126 c19 -7 21 -35 4
-52 -30 -30 -87 3 -68 39 11 19 35 24 64 13z m-322 -29 c7 -35 -2 -77 -16 -72
-12 4 -21 61 -12 83 8 22 23 16 28 -11z m-4002 -22 c72 -47 150 -141 150 -180
0 -35 -30 -29 -87 16 -82 65 -132 133 -120 165 8 20 26 20 57 -1z m-1081 -371
c36 -29 81 -87 81 -104 0 -21 -50 -58 -78 -58 -37 0 -82 35 -82 64 0 12 -11
37 -25 56 -28 38 -30 50 -12 69 18 19 75 6 116 -27z m5786 25 c25 -19 13 -33
-39 -46 -68 -17 -235 -32 -274 -25 -67 13 -49 58 29 73 74 15 262 13 284 -2z
m-5840 -343 c9 -14 19 -41 22 -60 5 -29 3 -34 -15 -34 -13 0 -25 12 -36 34
-33 69 -9 118 29 60z m1270 -464 c9 -15 -42 -42 -90 -48 -35 -4 -46 -1 -51 12
-12 30 15 46 77 46 32 0 60 -4 64 -10z m-453 -84 c11 -16 10 -22 -6 -35 -22
-19 -70 -10 -75 13 -7 39 59 56 81 22z m2277 -71 c117 -49 228 -114 300 -174
156 -130 545 -337 763 -406 46 -14 107 -38 137 -51 44 -21 81 -28 185 -36 144
-11 441 -5 636 14 69 6 138 8 153 4 46 -11 36 -46 -35 -111 -88 -81 -121 -90
-133 -34 -9 40 -33 38 -125 -12 -129 -70 -137 -71 -365 -81 -270 -12 -283 -11
-313 8 -42 28 -9 44 119 60 205 25 205 25 187 35 -9 5 -107 11 -219 15 -252 7
-342 21 -528 83 -293 98 -441 166 -441 201 0 33 18 32 107 -8 116 -52 330
-120 553 -176 183 -46 230 -54 230 -37 0 11 -61 31 -195 65 -197 49 -524 176
-724 282 -57 30 -126 60 -154 66 -61 13 -125 69 -222 193 -69 88 -85 115 -85
141 0 23 38 14 169 -41z m-3061 -1 c29 -20 28 -42 -2 -50 -52 -13 -93 18 -67
50 17 20 40 20 69 0z m2560 -8 c55 -29 72 -58 82 -142 18 -161 96 -303 209
-385 97 -69 95 -51 -4 73 -71 89 -91 128 -62 128 7 0 60 -37 118 -83 136 -109
243 -180 332 -223 82 -39 97 -41 97 -15 0 14 -11 23 -37 31 -49 16 -208 121
-297 197 -98 82 -125 119 -135 184 -9 55 -4 149 8 149 4 0 17 -21 30 -47 44
-90 91 -142 205 -224 127 -93 350 -233 413 -261 23 -10 57 -37 74 -58 38 -47
38 -47 154 -59 66 -7 126 -22 220 -56 192 -70 275 -110 275 -133 0 -32 -39
-34 -238 -12 -103 11 -270 29 -372 40 -102 12 -333 45 -515 75 -374 61 -465
73 -450 57 16 -16 321 -88 515 -122 333 -57 596 -82 1042 -98 108 -4 200 -11
205 -16 15 -15 -29 -35 -95 -42 -92 -10 -481 2 -687 21 -280 26 -445 51 -736
109 -308 63 -307 62 -289 41 29 -35 310 -106 590 -149 338 -52 626 -75 930
-76 259 -1 320 -13 246 -49 -43 -20 -313 -86 -476 -115 -331 -59 -497 -68
-761 -42 -264 27 -289 28 -289 18 0 -25 178 -66 360 -82 250 -22 315 -31 329
-45 27 -27 -33 -37 -219 -38 -198 0 -285 12 -525 73 -172 44 -303 70 -349 69
l-31 0 40 -15 c22 -8 135 -41 250 -74 274 -77 290 -83 290 -106 0 -61 -260
-55 -447 12 -126 45 -207 92 -228 134 -60 118 -508 456 -690 520 -68 24 -100
45 -100 65 0 14 58 69 135 127 81 61 226 189 387 341 305 288 406 350 496 303z
m-438 -74 c22 -18 22 -19 5 -53 -23 -45 -44 -68 -77 -85 -23 -12 -53 -12 -210
1 -101 9 -192 20 -203 24 -19 8 -19 9 5 19 14 5 90 17 170 26 80 10 154 18
165 20 14 2 5 9 -30 25 -65 29 -47 41 66 41 69 0 91 -4 109 -18z m-1541 -21
c8 -5 9 -11 3 -15 -40 -25 -533 -49 -547 -27 -14 23 13 33 112 41 140 10 416
11 432 1z m889 -88 c2 -9 -8 -13 -32 -13 -34 0 -52 11 -39 24 11 11 66 2 71
-11z m-1001 -39 c6 -18 -23 -24 -151 -31 -148 -7 -319 4 -313 20 6 18 77 24
276 23 127 -1 186 -5 188 -12z m-2912 -26 c28 -69 105 -478 105 -560 0 -56
-15 -62 -35 -14 -40 94 -124 552 -109 591 10 24 24 18 39 -17z m164 -83 c58
-173 102 -481 71 -500 -30 -18 -56 69 -105 345 -31 177 -33 233 -7 228 11 -2
25 -26 41 -73z m3451 52 c0 -21 -22 -37 -52 -37 -21 0 -28 5 -28 19 0 22 13
29 53 30 16 1 27 -4 27 -12z m780 -7 c21 -33 -49 -59 -116 -43 -44 10 -67 38
-44 54 22 15 149 6 160 -11z m3491 -19 c23 -19 24 -20 9 -62 -19 -55 -54 -76
-179 -105 -110 -27 -179 -30 -206 -11 -20 15 -13 37 11 37 29 0 163 62 226
103 55 37 86 52 109 56 4 1 17 -8 30 -18z m-8142 -28 c18 -69 83 -513 77 -528
-9 -24 -36 -17 -47 12 -27 72 -80 501 -66 537 11 27 26 18 36 -21z m-142 -4
c13 -26 73 -372 73 -420 0 -33 -22 -48 -44 -30 -23 19 -47 147 -71 378 -10 95
12 133 42 72z m272 -6 c31 -119 85 -468 75 -484 -18 -30 -42 22 -73 161 -23
110 -47 321 -38 344 11 27 26 18 36 -21z m2806 13 c18 -13 17 -14 -6 -29 -49
-32 -259 -31 -259 2 0 12 21 28 45 34 47 11 201 7 220 -7z m1529 -24 c22 -4
41 -13 43 -19 10 -28 -53 -35 -287 -35 -244 0 -304 8 -280 37 6 7 26 16 43 18
56 7 441 6 481 -1z m-4725 -84 c6 -17 14 -56 18 -85 5 -44 3 -53 -10 -53 -16
0 -28 31 -42 113 -10 61 15 80 34 25z m7207 -18 c97 -26 115 -36 94 -50 -43
-30 -266 35 -244 72 8 12 44 7 150 -22z m-7352 -22 c7 -18 18 -91 25 -163 6
-71 22 -184 36 -250 14 -66 25 -130 25 -142 0 -28 -25 -30 -40 -4 -29 54 -75
317 -86 490 -6 91 -5 101 10 101 10 0 23 -14 30 -32z m3145 23 c19 -12 5 -31
-24 -31 -31 0 -40 16 -18 29 22 13 25 13 42 2z m1635 -10 c35 -7 44 -25 19
-36 -10 -4 -108 -12 -218 -17 -110 -5 -215 -10 -234 -11 -39 -2 -64 24 -43 45
20 20 403 35 476 19z m-3768 -62 c15 -41 18 -145 5 -154 -15 -8 -28 24 -42 97
-12 68 -8 103 13 96 6 -2 17 -20 24 -39z m2654 15 c19 -22 -18 -59 -49 -49
-25 8 -28 40 -3 54 24 15 38 13 52 -5z m4830 -7 c0 -30 -27 -55 -75 -68 -42
-12 -71 4 -60 32 8 22 75 59 108 59 22 0 27 -4 27 -23z m-3818 -75 c32 -33
-74 -59 -204 -50 -96 7 -115 39 -36 58 52 14 225 7 240 -8z m-719 -26 c8 -20
-24 -46 -57 -46 -34 0 -46 28 -21 46 24 18 71 18 78 0z m242 -20 c0 -24 -33
-36 -65 -24 l-25 9 24 20 c30 24 66 22 66 -5z m-737 -14 c2 -13 -5 -25 -18
-32 -45 -24 -69 15 -28 44 28 20 42 16 46 -12z m262 3 c0 -10 -10 -15 -30 -15
-20 0 -30 5 -30 15 0 10 10 15 30 15 20 0 30 -5 30 -15z m756 -90 c21 -32 5
-55 -40 -55 -35 0 -56 15 -56 40 0 45 69 56 96 15z m-3150 -85 c15 -65 9 -120
-15 -120 -22 0 -49 137 -37 186 6 23 9 25 21 13 8 -8 22 -44 31 -79z m2681 74
c5 -16 -25 -44 -48 -44 -22 0 -26 29 -7 48 15 15 50 12 55 -4z m271 -1 c2 -9
-10 -13 -42 -13 -43 0 -55 7 -39 24 12 11 76 2 81 -11z m-3078 -52 c5 -11 10
-30 10 -42 0 -13 18 -76 40 -140 42 -124 49 -169 26 -169 -21 0 -103 199 -130
319 -10 45 33 70 54 32z m-1291 -106 c7 -44 19 -115 27 -159 13 -65 14 -80 2
-87 -39 -24 -68 72 -68 227 0 153 18 162 39 19z m4419 28 c2 -9 -9 -13 -37
-13 -39 0 -57 10 -44 24 12 11 76 2 81 -11z m3354 -40 c79 -31 43 -67 -52 -52
-32 5 -62 17 -74 29 -21 21 -21 21 -1 36 21 16 65 11 127 -13z m-3017 -8 c122
-31 337 -151 480 -269 240 -196 685 -614 685 -643 0 -21 -31 -43 -61 -43 -41
0 -84 24 -149 82 -30 27 -85 67 -121 88 -36 22 -126 83 -200 137 -165 121
-259 178 -414 253 -154 74 -275 115 -400 135 -77 12 -104 20 -117 36 -22 26
-24 99 -3 139 16 31 66 73 105 89 38 15 129 13 195 -4z m-3572 -27 c50 -67
167 -330 182 -410 5 -29 2 -40 -20 -66 -56 -67 -67 -50 -151 232 -53 179 -74
263 -66 270 13 13 33 4 55 -26z m-111 -68 c26 -67 149 -497 155 -539 6 -42
-14 -66 -46 -56 -31 9 -61 98 -141 407 -41 159 -49 202 -40 218 19 36 52 22
72 -30z m3209 -36 c11 -14 10 -19 -10 -35 -37 -30 -111 -19 -111 16 0 34 96
49 121 19z m4625 2 c36 -27 2 -37 -152 -47 -259 -16 -269 -16 -269 1 0 31 136
56 311 59 64 1 96 -3 110 -13z m-8132 -21 c7 -20 -4 -47 -18 -42 -17 6 -20 57
-3 57 8 0 17 -7 21 -15z m7606 -25 c13 -9 13 -11 0 -20 -19 -12 -80 -13 -99
-1 -11 7 -10 11 5 20 24 13 74 14 94 1z m-315 -54 c18 -13 17 -15 -21 -34 -57
-29 -139 -51 -154 -42 -30 18 23 63 95 81 46 11 60 10 80 -5z m663 -102 c17
-4 32 -11 32 -18 0 -15 -262 -205 -337 -245 -58 -30 -250 -32 -440 -5 -101 15
-92 56 17 73 36 5 143 15 239 21 232 15 262 30 99 51 -46 6 -97 13 -115 15
-73 10 -38 66 54 84 32 6 76 18 98 26 31 10 73 13 180 9 77 -3 155 -8 173 -11z
m-8070 -21 c4 -27 -30 -68 -51 -60 -23 9 -21 43 4 68 24 24 43 21 47 -8z
m3910 15 c-6 -17 -131 -65 -192 -73 -84 -12 -103 43 -24 71 46 17 221 18 216
2z m191 -24 c59 -17 128 -73 119 -95 -7 -18 -281 -109 -328 -109 -24 0 -41 9
-66 36 -58 61 -49 72 89 114 21 7 52 25 68 41 34 33 46 35 118 13z m-4531 -38
c4 -52 -4 -72 -23 -56 -17 14 -30 74 -20 90 15 24 40 5 43 -34z m7459 27 c11
-33 -161 -96 -248 -91 -46 3 -54 6 -54 23 0 23 35 37 165 65 93 21 131 21 137
3z m-6813 -19 c10 -26 7 -51 -8 -63 -12 -10 -18 -7 -31 13 -20 30 -12 66 15
66 10 0 21 -7 24 -16z m3347 -80 c22 -9 91 -57 152 -106 108 -87 281 -206 437
-301 91 -55 124 -88 116 -115 -4 -10 -43 -50 -89 -89 -45 -39 -139 -124 -208
-189 -69 -66 -179 -157 -245 -203 -217 -154 -300 -218 -390 -302 -102 -96
-225 -196 -301 -246 -59 -40 -93 -38 -93 3 0 24 4 29 72 84 26 22 55 68 102
163 54 110 81 149 156 236 51 58 90 111 88 120 -5 24 -51 25 -96 2 -22 -11
-107 -70 -188 -132 -82 -61 -174 -125 -204 -142 -30 -18 -90 -69 -133 -114
-91 -95 -275 -226 -310 -221 -32 5 -25 40 22 96 21 26 43 62 49 80 18 52 97
144 259 303 99 96 174 160 223 189 92 56 98 70 32 70 -80 0 -169 -34 -359
-137 -340 -184 -406 -227 -549 -358 -72 -66 -77 -68 -90 -50 -8 10 -14 29 -14
41 0 58 148 291 270 426 63 70 68 73 305 183 120 55 195 102 195 121 0 21 -57
17 -89 -6 -16 -10 -50 -24 -77 -30 -27 -6 -109 -40 -184 -75 -74 -35 -162 -71
-194 -80 -33 -10 -111 -42 -175 -71 -181 -86 -245 -99 -285 -58 -27 27 -19 61
26 110 91 99 398 274 593 339 113 37 163 62 487 241 220 122 343 176 459 203
145 34 176 36 230 15z m3014 -9 c0 -14 -11 -24 -39 -33 -46 -15 -96 -7 -96 14
0 21 58 44 100 41 28 -1 35 -6 35 -22z m-6239 -30 c16 -25 13 -55 -5 -55 -18
0 -41 31 -41 56 0 32 25 31 46 -1z m4114 -43 c82 -31 100 -46 74 -60 -11 -5
-91 -31 -179 -58 -186 -56 -264 -63 -312 -28 -19 15 -28 30 -28 50 0 38 37 58
176 95 62 16 115 32 118 35 9 9 83 -7 151 -34z m-4574 -4 c30 -58 55 -141 45
-151 -17 -17 -40 1 -64 50 -29 58 -39 96 -31 117 10 26 32 18 50 -16z m-231
-58 c0 -30 -35 -40 -55 -15 -10 12 -10 18 0 30 20 25 55 15 55 -15z m5537 -16
c64 -33 -3 -58 -78 -29 -42 16 -54 32 -36 49 10 11 78 -1 114 -20z m2031 -14
c72 -22 88 -32 69 -44 -5 -3 -121 -16 -258 -30 -315 -33 -377 -43 -439 -72
-45 -21 -178 -44 -257 -44 -31 0 -60 24 -52 44 9 23 52 36 167 51 62 8 151 28
198 44 72 25 193 54 309 75 56 10 188 -2 263 -24z m-4463 -16 c0 -38 -300
-191 -424 -216 -48 -9 -59 -8 -81 6 -58 38 -40 71 43 82 70 8 159 39 275 93
125 59 187 70 187 35z m-867 -20 c19 -20 -88 -158 -235 -304 -129 -127 -215
-193 -293 -221 -33 -12 -85 -34 -115 -49 -76 -37 -166 -65 -290 -89 -58 -12
-117 -24 -132 -27 -24 -5 -28 -3 -28 14 0 26 83 67 178 88 37 8 87 19 112 25
59 13 264 114 365 179 134 87 181 128 253 218 69 86 154 172 170 172 5 0 11
-3 15 -6z m2794 -26 c106 -39 121 -78 36 -97 -87 -18 -399 -55 -416 -48 -27
10 -20 44 13 67 17 12 81 41 143 65 121 47 131 48 224 13z m-2670 -20 c-10
-37 -104 -190 -141 -227 -34 -34 -66 -37 -66 -7 0 17 126 210 164 250 31 32
53 24 43 -16z m5404 32 c26 -15 24 -38 -5 -52 -43 -19 -83 15 -56 47 15 18 34
19 61 5z m-1720 -98 c47 -31 75 -71 66 -96 -6 -14 -32 -16 -187 -16 -185 0
-267 11 -277 37 -10 25 12 35 144 69 161 42 196 42 254 6z m407 5 c30 -8 61
-21 69 -30 29 -28 -19 -41 -175 -45 -116 -4 -151 -1 -187 12 -62 24 -68 53
-15 76 34 14 241 5 308 -13z m-6196 -44 c33 -37 58 -96 47 -110 -8 -9 -16 -10
-30 -3 -22 12 -69 89 -69 113 0 22 33 22 52 0z m5061 -28 c54 -25 97 -59 97
-75 0 -19 -32 -25 -210 -37 -238 -15 -290 -8 -290 38 0 24 23 33 144 58 52 10
103 24 113 30 31 18 92 12 146 -14z m2167 -11 c0 -18 -47 -39 -145 -64 -131
-34 -158 -35 -188 -8 -18 15 -24 27 -19 36 5 7 55 19 113 28 57 8 109 17 114
19 6 2 36 4 68 4 45 1 57 -2 57 -15z m-4965 -39 c0 -15 -8 -21 -29 -23 -30 -4
-48 12 -39 35 4 9 17 13 37 11 23 -2 31 -8 31 -23z m-2977 -41 c47 -63 50 -74
25 -97 -23 -20 -134 -56 -195 -64 -53 -6 -66 6 -54 53 8 31 143 164 166 164 9
0 35 -25 58 -56z m963 5 c23 -23 22 -47 -3 -63 -31 -19 -87 52 -61 77 13 13
43 7 64 -14z m6331 -3 c35 -8 95 -17 133 -21 89 -8 105 -13 105 -31 0 -24 -59
-42 -176 -55 -93 -10 -123 -10 -204 4 -206 36 -308 80 -238 103 77 25 267 25
380 0z m-607 -41 c33 -7 108 -30 166 -49 59 -20 116 -36 128 -36 30 0 61 -18
61 -35 0 -16 -59 -35 -111 -35 -91 0 -311 51 -416 96 -38 17 -53 28 -53 43 0
10 6 22 13 24 26 11 154 6 212 -8z m-665 -68 c132 -36 192 -62 188 -84 -5 -27
-44 -27 -200 2 -229 43 -312 76 -267 107 23 15 178 1 279 -25z m-5542 -96
c125 -49 273 -105 329 -125 127 -44 163 -62 163 -83 0 -13 -10 -15 -63 -11
-48 4 -114 26 -282 93 -245 98 -317 131 -364 170 -26 22 -34 45 -15 45 2 0
106 -40 232 -89z m1937 -201 c0 -21 -11 -30 -65 -57 -97 -48 -204 -59 -169
-17 35 43 165 105 209 101 19 -1 25 -8 25 -27z m-930 -30 c0 -18 -33 -26 -47
-12 -6 6 -7 15 -3 22 10 16 50 8 50 -10z m289 -38 c15 -24 -72 -70 -92 -50
-29 29 -1 57 55 58 17 0 34 -4 37 -8z m736 -11 c7 -15 6 -24 -6 -36 -19 -18
-33 -16 -48 7 -7 12 -6 21 3 32 18 22 38 20 51 -3z m306 -102 c24 -20 -1 -49
-42 -49 -64 0 -97 35 -56 60 20 12 78 6 98 -11z m-1027 -39 c78 -6 119 -14
129 -24 30 -30 -29 -38 -266 -34 -184 2 -224 6 -232 18 -15 24 3 32 92 40 123
11 152 11 277 0z m1005 -286 c23 -9 20 -41 -5 -54 -27 -15 -59 -9 -73 13 -19
31 33 58 78 41z"/>
<path d="M6085 11369 c-134 -31 -307 -106 -415 -179 -61 -42 -117 -97 -108
-106 3 -3 66 26 140 65 73 38 174 85 223 104 79 30 252 110 264 123 7 7 -62 3
-104 -7z"/>
<path d="M5960 10040 c-41 -39 -108 -95 -147 -126 -40 -30 -73 -56 -73 -58 0
-1 17 -2 38 -2 20 1 39 -3 41 -9 2 -5 -40 -33 -94 -62 -106 -56 -151 -91 -136
-106 12 -12 65 5 179 61 114 54 189 112 198 150 18 81 27 103 54 137 27 34 41
85 23 85 -5 -1 -42 -32 -83 -70z"/>
<path d="M8894 9685 c3 -30 18 -91 32 -136 19 -61 28 -116 34 -223 10 -162 18
-193 56 -202 44 -11 59 6 57 65 -2 45 -21 95 -55 143 -10 13 -9 32 5 89 16 66
16 74 1 103 -8 17 -29 65 -46 106 -32 80 -52 110 -76 110 -12 0 -14 -10 -8
-55z"/>
<path d="M5707 9640 c-104 -46 -165 -66 -227 -75 -46 -7 -80 -28 -80 -50 0
-15 -48 -59 -85 -78 -31 -16 -92 -74 -84 -81 8 -8 93 26 218 85 121 58 360
199 382 226 22 25 -33 14 -124 -27z"/>
<path d="M2981 9319 c-77 -31 -344 -258 -469 -398 -107 -119 -125 -144 -188
-262 -71 -133 -115 -193 -259 -359 -187 -214 -241 -286 -494 -660 -108 -160
-170 -309 -215 -521 -26 -127 -65 -214 -149 -338 -27 -41 -63 -104 -79 -140
-58 -127 -201 -343 -357 -536 -82 -102 -249 -346 -306 -449 -32 -57 -39 -81
-43 -142 -5 -87 9 -196 49 -359 25 -106 55 -279 130 -750 28 -180 62 -310 116
-445 60 -153 180 -400 194 -400 16 0 4 33 -61 165 -77 156 -94 201 -135 359
-58 222 -84 401 -101 689 -5 97 -4 117 8 117 15 0 233 -130 297 -177 58 -43
78 -71 109 -159 33 -94 52 -107 52 -36 0 108 -100 234 -275 347 -134 87 -210
192 -267 368 -36 111 -48 263 -28 347 16 67 89 176 261 390 168 210 226 299
351 542 108 211 156 281 191 276 27 -4 47 -42 47 -93 0 -22 4 -46 9 -53 11
-18 15 3 46 248 26 208 52 314 110 450 90 212 246 466 390 635 42 50 115 146
163 214 48 68 115 161 148 207 34 45 85 125 113 176 28 51 72 120 96 153 133
178 341 382 485 475 138 90 151 101 147 113 -5 15 -55 19 -86 6z"/>
<path d="M5265 9306 c-66 -16 -75 -22 -75 -52 0 -17 5 -24 19 -24 23 0 161 48
178 62 35 28 -32 36 -122 14z"/>
<path d="M9030 9028 c-19 -12 -36 -23 -38 -24 -5 -3 -69 -389 -78 -465 -9 -78
6 -73 46 15 33 73 60 187 60 253 0 60 12 82 34 64 8 -7 19 -10 25 -7 12 8 25
128 17 161 -8 31 -21 31 -66 3z"/>
<path d="M5049 8993 c-13 -16 -12 -17 4 -4 16 13 21 21 13 21 -2 0 -10 -8 -17
-17z"/>
<path d="M8596 8658 c-22 -33 -33 -101 -46 -273 -11 -143 -8 -205 10 -205 27
0 45 24 99 133 33 67 63 135 67 150 6 26 4 28 -17 25 -18 -2 -34 -21 -64 -77
-22 -41 -44 -73 -50 -72 -5 1 -10 27 -10 59 1 46 9 75 44 151 33 70 41 98 34
110 -16 26 -50 25 -67 -1z"/>
<path d="M4677 8393 c-4 -3 -7 -11 -7 -17 0 -6 5 -5 12 2 6 6 9 14 7 17 -3 3
-9 2 -12 -2z"/>
<path d="M4528 8128 c-21 -32 -74 -138 -82 -165 -13 -40 10 -25 37 25 30 56
69 153 64 159 -2 2 -11 -7 -19 -19z"/>
<path d="M4387 7754 c-4 -4 -7 -17 -7 -28 1 -19 1 -20 11 -3 11 19 8 43 -4 31z"/>
<path d="M5670 7686 c0 -29 40 -121 65 -151 l26 -30 -6 50 c-8 62 -44 139 -67
143 -11 2 -18 -3 -18 -12z"/>
<path d="M4281 7412 c-14 -52 -26 -139 -17 -131 8 8 38 161 32 167 -3 2 -9
-14 -15 -36z"/>
<path d="M6456 6940 c6 -6 46 -17 90 -26 176 -35 224 -48 331 -90 115 -45 158
-54 151 -31 -12 34 -219 111 -380 142 -93 17 -207 20 -192 5z"/>
<path d="M6167 6843 c-15 -14 -5 -23 46 -37 110 -30 223 -28 191 4 -28 28
-217 54 -237 33z"/>
<path d="M4017 6786 c-11 -16 -61 -72 -113 -126 -52 -55 -94 -104 -94 -109 0
-23 23 -8 93 62 83 81 140 159 135 184 -2 13 -7 11 -21 -11z"/>
<path d="M4150 6514 c0 -51 46 -241 57 -231 6 7 -36 215 -48 237 -7 12 -8 10
-9 -6z"/>
<path d="M4535 6323 c-11 -2 -30 -6 -42 -9 -46 -9 -21 -24 40 -24 68 0 137 15
137 30 0 10 -95 12 -135 3z"/>
<path d="M10775 6240 c-35 -28 -36 -30 -14 -30 27 0 89 35 89 50 0 20 -38 10
-75 -20z"/>
<path d="M4280 6130 c0 -59 26 -71 158 -77 123 -6 236 8 301 39 65 30 35 33
-125 13 -155 -19 -213 -12 -288 35 l-46 30 0 -40z"/>
<path d="M3784 6052 c-76 -56 -128 -132 -90 -132 17 0 127 89 150 121 32 46
-3 52 -60 11z"/>
<path d="M11288 6054 c-5 -4 -8 -28 -8 -53 1 -36 3 -42 11 -28 11 19 8 93 -3
81z"/>
<path d="M9145 5948 c-5 -21 4 -82 50 -335 8 -46 17 -120 20 -165 9 -120 15
-156 25 -138 5 9 2 76 -6 150 -7 74 -18 215 -23 313 -6 98 -13 182 -16 187
-12 19 -44 11 -50 -12z"/>
<path d="M10935 5909 c-10 -15 1 -23 20 -15 9 3 13 10 10 16 -8 13 -22 13 -30
-1z"/>
<path d="M8956 5650 c13 -293 16 -748 5 -895 -22 -289 -24 -341 -13 -330 26
25 34 102 39 352 5 257 -10 774 -27 903 -8 59 -8 56 -4 -30z"/>
<path d="M1444 5714 c18 -43 13 -49 -31 -46 -24 2 -43 -1 -43 -6 0 -23 127
-112 160 -112 5 0 10 14 10 30 0 36 8 37 68 5 26 -14 60 -25 77 -25 27 0 24 3
-31 33 -33 18 -89 53 -125 78 -94 65 -94 66 -85 43z"/>
<path d="M10677 5545 c-44 -15 -51 -20 -46 -33 5 -11 109 27 109 39 0 12 -18
11 -63 -6z"/>
<path d="M10755 5169 c-117 -27 -127 -54 -17 -47 79 6 152 28 152 47 0 13 -78
13 -135 0z"/>
<path d="M11682 5065 c-51 -7 -95 -15 -99 -19 -9 -8 475 -5 512 4 l30 7 -28
11 c-37 16 -293 14 -415 -3z"/>
<path d="M9242 4925 c0 -16 2 -22 5 -12 2 9 2 23 0 30 -3 6 -5 -1 -5 -18z"/>
<path d="M12216 4901 c13 -14 135 -25 178 -17 72 14 35 26 -76 26 -71 0 -108
-4 -102 -9z"/>
<path d="M1381 4841 c28 -18 110 -32 195 -32 88 -1 119 7 89 23 -24 14 -305
22 -284 9z"/>
<path d="M11215 4823 c-55 -14 -31 -23 65 -23 71 0 101 3 94 10 -12 12 -129
22 -159 13z"/>
<path d="M11670 4815 c0 -8 5 -15 10 -15 6 0 10 7 10 15 0 8 -4 15 -10 15 -5
0 -10 -7 -10 -15z"/>
<path d="M11177 4663 c18 -2 50 -2 70 0 21 2 7 4 -32 4 -38 0 -55 -2 -38 -4z"/>
<path d="M12467 4640 c-80 -15 -44 -27 68 -21 60 4 79 13 45 22 -32 9 -65 9
-113 -1z"/>
<path d="M900 4548 c0 -89 9 -115 34 -105 23 9 21 91 -4 145 -10 23 -21 42
-25 42 -3 0 -5 -37 -5 -82z"/>
<path d="M11668 4543 c7 -3 16 -2 19 1 4 3 -2 6 -13 5 -11 0 -14 -3 -6 -6z"/>
<path d="M11200 4531 c-28 -5 -31 -8 -17 -14 35 -14 217 -2 217 14 0 10 -146
10 -200 0z"/>
<path d="M11230 4388 c-114 -10 -180 -24 -180 -38 0 -16 15 -18 65 -9 27 5
123 16 214 25 217 20 262 32 116 32 -60 -1 -157 -5 -215 -10z"/>
<path d="M12585 4320 c-8 -13 39 -25 102 -25 55 0 77 10 53 25 -20 13 -147 13
-155 0z"/>
<path d="M11630 4253 c-41 -8 -48 -23 -9 -23 50 0 84 11 67 21 -14 9 -17 9
-58 2z"/>
<path d="M2690 4215 c-47 -19 -120 -45 -162 -57 -129 -35 -104 -45 151 -58 97
-5 209 -16 249 -24 151 -33 489 -154 641 -231 126 -63 295 -205 338 -284 16
-30 27 -36 78 -47 33 -7 93 -24 134 -38 83 -29 91 -30 91 -16 0 18 -62 80 -81
80 -12 0 -19 7 -19 19 0 48 -512 396 -780 530 -223 111 -344 152 -465 158 -85
4 -94 2 -175 -32z m254 -25 c29 -11 36 -47 10 -57 -20 -8 -84 23 -84 40 0 28
28 35 74 17z"/>
<path d="M11110 4221 c0 -12 51 -21 115 -21 64 0 115 9 115 21 0 5 -52 9 -115
9 -63 0 -115 -4 -115 -9z"/>
<path d="M12606 4140 c21 -8 104 -14 154 -10 l25 2 -25 8 c-35 11 -182 11
-154 0z"/>
<path d="M10910 4091 c-14 -4 -27 -15 -28 -26 -4 -17 2 -18 104 -11 115 7 154
13 154 26 0 4 -10 10 -22 14 -30 8 -176 6 -208 -3z"/>
<path d="M11420 4090 c-12 -8 -12 -10 3 -16 23 -9 96 1 110 15 14 14 -91 15
-113 1z"/>
<path d="M12256 3972 c-10 -16 3 -19 94 -23 152 -5 245 0 233 12 -16 16 -318
26 -327 11z"/>
<path d="M1666 3852 c-67 -65 -179 -171 -251 -234 -71 -64 -141 -127 -154
-142 -41 -44 -15 -41 46 4 148 111 314 242 365 289 82 75 162 201 127 201 -7
0 -67 -53 -133 -118z"/>
<path d="M10868 3953 c-54 -2 -98 -7 -98 -12 0 -15 151 -20 353 -12 109 5 200
10 202 13 3 3 -36 8 -86 11 -89 7 -162 7 -371 0z"/>
<path d="M11393 3834 c-34 -15 -6 -25 60 -22 39 2 72 8 72 13 0 10 -111 18
-132 9z"/>
<path d="M2737 3599 c-114 -13 -347 -95 -347 -121 0 -11 2 -11 290 28 266 36
334 36 489 -5 139 -37 164 -33 114 18 -69 69 -322 106 -546 80z"/>
<path d="M12180 3603 c-14 -2 -36 -6 -50 -9 l-25 -6 24 -9 c23 -9 97 -4 131 8
12 4 11 7 -5 13 -21 9 -35 10 -75 3z"/>
<path d="M11460 3566 c-36 -6 -74 -17 -85 -24 -17 -10 -11 -11 42 -12 70 0
212 25 227 40 14 14 -100 11 -184 -4z"/>
<path d="M11850 3472 c-29 -9 -19 -18 33 -27 45 -9 114 2 100 16 -13 13 -102
20 -133 11z"/>
<path d="M12090 3469 c-23 -9 -23 -11 -7 -20 19 -11 77 -3 77 11 0 8 -25 21
-38 19 -4 0 -18 -5 -32 -10z"/>
<path d="M11300 3400 c-12 -8 -11 -10 7 -10 12 0 25 5 28 10 8 13 -15 13 -35
0z"/>
<path d="M3980 3392 c0 -7 29 -74 64 -150 36 -76 76 -177 90 -225 81 -281 19
-564 -211 -965 -47 -81 -123 -215 -170 -299 -112 -197 -189 -301 -337 -449
-124 -123 -205 -179 -228 -156 -17 17 1 47 77 132 128 141 180 291 195 560 10
169 15 200 46 259 14 28 17 59 17 155 -1 117 -19 282 -32 290 -3 2 -4 -86 -2
-196 2 -126 -1 -204 -7 -210 -16 -16 -29 17 -58 143 -43 186 -50 171 -58 -121
-9 -327 -68 -575 -197 -833 -136 -270 -180 -299 -509 -332 -189 -19 -218 -24
-199 -36 22 -14 258 -10 382 6 399 52 633 217 921 649 46 68 96 156 110 194
15 38 41 94 59 123 52 85 54 89 93 184 20 50 66 151 101 225 64 136 86 201 98
300 8 63 29 120 44 120 55 0 28 -372 -45 -625 -81 -275 -25 -188 80 126 61
184 76 255 76 358 0 177 -44 322 -138 460 -110 163 -262 344 -262 313z"/>
<path d="M11058 3393 c6 -2 18 -2 25 0 6 3 1 5 -13 5 -14 0 -19 -2 -12 -5z"/>
<path d="M3340 3378 c0 -31 156 -276 168 -264 10 11 -131 254 -157 270 -6 4
-11 1 -11 -6z"/>
<path d="M11640 3310 c-49 -6 -45 -7 40 -9 52 -1 140 -6 195 -11 55 -5 143
-12 195 -16 88 -6 94 -5 79 10 -8 9 -42 21 -75 26 -65 11 -347 11 -434 0z"/>
<path d="M2962 3149 c-68 -20 -9 -46 109 -48 56 -1 111 -19 106 -35 -3 -7 -36
-11 -97 -11 -98 0 -125 -13 -73 -34 15 -6 93 -22 172 -36 79 -14 156 -31 170
-38 14 -7 37 -29 50 -50 17 -26 28 -34 35 -27 7 7 7 15 1 24 -6 8 -25 36 -43
64 -25 37 -52 60 -107 91 -149 86 -258 119 -323 100z"/>
<path d="M3585 2990 c20 -74 135 -281 203 -363 36 -45 62 -102 62 -141 0 -35
-31 -12 -83 62 -47 67 -108 135 -95 107 2 -5 17 -37 33 -70 28 -57 29 -68 36
-245 4 -102 7 -186 8 -187 0 -2 7 -3 15 -3 13 0 23 15 80 125 30 58 48 162 39
219 -12 74 -188 389 -270 482 -30 34 -33 36 -28 14z"/>
<path d="M11670 2990 c-11 -7 3 -9 45 -9 48 1 54 3 30 9 -43 11 -58 11 -75 0z"/>
<path d="M1340 2925 c0 -17 5 -25 13 -22 6 2 12 12 12 22 0 10 -6 20 -12 23
-8 2 -13 -6 -13 -23z"/>
<path d="M11500 2702 c40 -14 208 -24 188 -12 -9 6 -61 13 -115 15 -60 3 -88
2 -73 -3z"/>
<path d="M11125 2411 c-92 -14 38 -36 276 -47 113 -5 166 -3 193 6 21 7 34 16
29 21 -9 9 -312 30 -403 27 -30 0 -73 -4 -95 -7z"/>
<path d="M11098 2174 c-38 -11 -10 -34 40 -34 29 0 60 15 50 25 -8 9 -70 14
-90 9z"/>
<path d="M10975 2021 l-40 -6 55 -8 c75 -9 140 -9 140 2 0 19 -75 24 -155 12z"/>
<path d="M900 1545 c-7 -9 -11 -18 -8 -20 3 -3 11 1 18 10 7 9 11 18 8 20 -3
3 -11 -1 -18 -10z"/>
<path d="M11010 1325 c7 -8 16 -15 21 -15 5 0 9 7 9 15 0 9 -9 15 -21 15 -18
0 -19 -2 -9 -15z"/>
<path d="M918 1291 c-54 -34 -72 -56 -34 -41 30 11 106 58 106 65 0 13 -30 2
-72 -24z"/>
<path d="M9745 1294 c-84 -21 -16 -33 205 -34 240 -1 355 -13 473 -51 73 -24
101 -29 109 -21 9 9 -5 19 -54 42 -111 52 -176 61 -458 65 -140 2 -264 2 -275
-1z"/>
<path d="M9120 1023 c0 -21 262 -73 365 -73 32 0 36 2 25 15 -19 23 -103 42
-210 50 -52 3 -114 9 -137 12 -26 3 -43 2 -43 -4z"/>
<path d="M8785 921 c-19 -8 -19 -9 5 -15 31 -7 85 -10 125 -7 26 2 27 3 10 10
-33 14 -119 21 -140 12z"/>
</g>
</svg>
